<mxfile host="65bd71144e" scale="1" border="0" disableSvgWarning="true">
    <diagram id="RUFYm0MTLleHeo7CGen_" name="概要">
        <mxGraphModel dx="530" dy="792" grid="1" gridSize="10" guides="1" tooltips="1" connect="1" arrows="1" fold="0" page="1" pageScale="1" pageWidth="1169" pageHeight="827" math="0" shadow="0">
            <root>
                <mxCell id="0"/>
                <mxCell id="1" parent="0"/>
                <mxCell id="6" value="" style="ellipse;whiteSpace=wrap;html=1;fillColor=#99CCFF;strokeColor=none;fontColor=#333333;movable=1;resizable=1;rotatable=1;deletable=1;editable=1;locked=0;connectable=1;" parent="1" vertex="1">
                    <mxGeometry x="73.37" y="103" width="620" height="440" as="geometry"/>
                </mxCell>
                <mxCell id="7" value="JASNAOE&#xa;&#xa;" style="strokeWidth=1;shape=mxgraph.flowchart.start_1;rotation=35;fontSize=30;fontFamily=TeX Gyre Termes;movable=1;resizable=1;rotatable=1;deletable=1;editable=1;locked=0;connectable=1;" parent="1" vertex="1">
                    <mxGeometry x="363.37" y="136.19" width="360" height="119.44" as="geometry"/>
                </mxCell>
                <mxCell id="8" value="JIME&#xa;&#xa;" style="strokeWidth=1;shape=mxgraph.flowchart.start_1;rotation=-60;fontSize=30;fontFamily=TeX Gyre Termes;movable=1;resizable=1;rotatable=1;deletable=1;editable=1;locked=0;connectable=1;" parent="1" vertex="1">
                    <mxGeometry y="213" width="392.36" height="126.14" as="geometry"/>
                </mxCell>
                <mxCell id="9" value="&#xa;JIN" style="strokeWidth=1;shape=mxgraph.flowchart.start_1;rotation=-15;fontSize=30;fontFamily=TeX Gyre Termes;movable=1;resizable=1;rotatable=1;deletable=1;editable=1;locked=0;connectable=1;" parent="1" vertex="1">
                    <mxGeometry x="250.20999999999998" y="433.0999999999999" width="395.18" height="124.81" as="geometry"/>
                </mxCell>
                <mxCell id="2" value="&lt;div&gt;Practical&amp;nbsp;&lt;span style=&quot;background-color: transparent;&quot;&gt;Database&lt;/span&gt;&lt;/div&gt;&lt;div&gt;in Maritime Industry&lt;/div&gt;" style="ellipse;shape=cloud;whiteSpace=wrap;html=1;fontSize=24;fillColor=#cdeb8b;strokeColor=#36393d;fontFamily=TeX Gyre Termes;movable=1;resizable=1;rotatable=1;deletable=1;editable=1;locked=0;connectable=1;" parent="1" vertex="1">
                    <mxGeometry x="253.37" y="193" width="308.01" height="260" as="geometry"/>
                </mxCell>
                <mxCell id="12" value="" style="shape=singleArrow;direction=south;whiteSpace=wrap;html=1;rotation=-140;arrowWidth=0.33648114340639096;arrowSize=0.5592686309726469;fillColor=#00CC00;strokeColor=none;movable=1;resizable=1;rotatable=1;deletable=1;editable=1;locked=0;connectable=1;" parent="1" vertex="1">
                    <mxGeometry x="442.3599999999999" y="193" width="28.99" height="50" as="geometry"/>
                </mxCell>
                <mxCell id="13" value="" style="shape=singleArrow;direction=south;whiteSpace=wrap;html=1;rotation=35;arrowWidth=0.33648114340639096;arrowSize=0.5592686309726469;fillColor=#ffcc99;strokeColor=none;movable=1;resizable=1;rotatable=1;deletable=1;editable=1;locked=0;connectable=1;" parent="1" vertex="1">
                    <mxGeometry x="466.16999999999996" y="213" width="28.99" height="50" as="geometry"/>
                </mxCell>
                <mxCell id="14" value="" style="shape=singleArrow;direction=south;whiteSpace=wrap;html=1;rotation=35;arrowWidth=0.33648114340639096;arrowSize=0.5592686309726469;fillColor=#ffcc99;strokeColor=none;movable=1;resizable=1;rotatable=1;deletable=1;editable=1;locked=0;connectable=1;" parent="1" vertex="1">
                    <mxGeometry x="493.37" y="229.24" width="28.99" height="50" as="geometry"/>
                </mxCell>
                <mxCell id="15" value="" style="shape=singleArrow;direction=south;whiteSpace=wrap;html=1;rotation=-150;arrowWidth=0.33648114340639096;arrowSize=0.5592686309726469;fillColor=#00CC00;strokeColor=none;movable=1;resizable=1;rotatable=1;deletable=1;editable=1;locked=0;connectable=1;" parent="1" vertex="1">
                    <mxGeometry x="522.36" y="236.01999999999998" width="28.99" height="50" as="geometry"/>
                </mxCell>
                <mxCell id="16" value="" style="shape=singleArrow;direction=south;whiteSpace=wrap;html=1;rotation=120;arrowWidth=0.33648114340639096;arrowSize=0.5592686309726469;fillColor=#00CC00;strokeColor=none;movable=1;resizable=1;rotatable=1;deletable=1;editable=1;locked=0;connectable=1;" parent="1" vertex="1">
                    <mxGeometry x="305.61" y="193" width="28.99" height="50" as="geometry"/>
                </mxCell>
                <mxCell id="17" value="" style="shape=singleArrow;direction=south;whiteSpace=wrap;html=1;rotation=-62;arrowWidth=0.33648114340639096;arrowSize=0.5592686309726469;fillColor=#ffcc99;strokeColor=none;movable=1;resizable=1;rotatable=1;deletable=1;editable=1;locked=0;connectable=1;" parent="1" vertex="1">
                    <mxGeometry x="293.37" y="229.24" width="28.99" height="50" as="geometry"/>
                </mxCell>
                <mxCell id="18" value="" style="shape=singleArrow;direction=south;whiteSpace=wrap;html=1;rotation=-62;arrowWidth=0.33648114340639096;arrowSize=0.5592686309726469;fillColor=#ffcc99;strokeColor=none;movable=1;resizable=1;rotatable=1;deletable=1;editable=1;locked=0;connectable=1;" parent="1" vertex="1">
                    <mxGeometry x="273.37" y="263" width="28.99" height="50" as="geometry"/>
                </mxCell>
                <mxCell id="19" value="" style="shape=singleArrow;direction=south;whiteSpace=wrap;html=1;rotation=120;arrowWidth=0.33648114340639096;arrowSize=0.5592686309726469;fillColor=#00CC00;strokeColor=none;movable=1;resizable=1;rotatable=1;deletable=1;editable=1;locked=0;connectable=1;" parent="1" vertex="1">
                    <mxGeometry x="253.37" y="298" width="28.99" height="50" as="geometry"/>
                </mxCell>
                <mxCell id="20" value="" style="shape=singleArrow;direction=south;whiteSpace=wrap;html=1;rotation=-15;arrowWidth=0.33648114340639096;arrowSize=0.5592686309726469;fillColor=#00CC00;strokeColor=none;movable=1;resizable=1;rotatable=1;deletable=1;editable=1;locked=0;connectable=1;" parent="1" vertex="1">
                    <mxGeometry x="385.37" y="423" width="28.99" height="50" as="geometry"/>
                </mxCell>
                <mxCell id="23" value="" style="shape=singleArrow;direction=south;whiteSpace=wrap;html=1;rotation=-195;arrowWidth=0.33648114340639096;arrowSize=0.5592686309726469;fillColor=#ffcc99;strokeColor=none;movable=1;resizable=1;rotatable=1;deletable=1;editable=1;locked=0;connectable=1;" parent="1" vertex="1">
                    <mxGeometry x="415.37" y="413" width="28.99" height="50" as="geometry"/>
                </mxCell>
                <mxCell id="24" value="" style="shape=singleArrow;direction=south;whiteSpace=wrap;html=1;rotation=-195;arrowWidth=0.33648114340639096;arrowSize=0.5592686309726469;fillColor=#ffcc99;strokeColor=none;movable=1;resizable=1;rotatable=1;deletable=1;editable=1;locked=0;connectable=1;" parent="1" vertex="1">
                    <mxGeometry x="445.37" y="403" width="28.99" height="50" as="geometry"/>
                </mxCell>
                <mxCell id="25" value="" style="shape=singleArrow;direction=south;whiteSpace=wrap;html=1;rotation=-15;arrowWidth=0.33648114340639096;arrowSize=0.5592686309726469;fillColor=#00CC00;strokeColor=none;movable=1;resizable=1;rotatable=1;deletable=1;editable=1;locked=0;connectable=1;" parent="1" vertex="1">
                    <mxGeometry x="474.36" y="393" width="28.99" height="50" as="geometry"/>
                </mxCell>
                <mxCell id="27" value="" style="shape=singleArrow;direction=south;whiteSpace=wrap;html=1;rotation=0;arrowWidth=0.33648114340639096;arrowSize=0.5592686309726469;fillColor=#647687;strokeColor=none;fontColor=#ffffff;movable=1;resizable=1;rotatable=1;deletable=1;editable=1;locked=0;connectable=1;" parent="1" vertex="1">
                    <mxGeometry x="363.3699999999999" y="53" width="28.99" height="50" as="geometry"/>
                </mxCell>
                <mxCell id="28" value="" style="shape=singleArrow;direction=south;whiteSpace=wrap;html=1;rotation=15;arrowWidth=0.33648114340639096;arrowSize=0.5592686309726469;fillColor=#647687;strokeColor=none;fontColor=#ffffff;movable=1;resizable=1;rotatable=1;deletable=1;editable=1;locked=0;connectable=1;" parent="1" vertex="1">
                    <mxGeometry x="453.3699999999999" y="53" width="28.99" height="50" as="geometry"/>
                </mxCell>
                <mxCell id="29" value="" style="shape=singleArrow;direction=south;whiteSpace=wrap;html=1;rotation=30;arrowWidth=0.33648114340639096;arrowSize=0.5592686309726469;fillColor=#647687;strokeColor=none;fontColor=#ffffff;movable=1;resizable=1;rotatable=1;deletable=1;editable=1;locked=0;connectable=1;" parent="1" vertex="1">
                    <mxGeometry x="540.3599999999999" y="93" width="28.99" height="50" as="geometry"/>
                </mxCell>
                <mxCell id="30" value="" style="shape=singleArrow;direction=south;whiteSpace=wrap;html=1;rotation=45;arrowWidth=0.33648114340639096;arrowSize=0.5592686309726469;fillColor=#647687;strokeColor=none;fontColor=#ffffff;movable=1;resizable=1;rotatable=1;deletable=1;editable=1;locked=0;connectable=1;" parent="1" vertex="1">
                    <mxGeometry x="593.3699999999999" y="133.1" width="28.99" height="50" as="geometry"/>
                </mxCell>
                <mxCell id="31" value="" style="shape=singleArrow;direction=south;whiteSpace=wrap;html=1;rotation=60;arrowWidth=0.33648114340639096;arrowSize=0.5592686309726469;fillColor=#647687;strokeColor=none;fontColor=#ffffff;movable=1;resizable=1;rotatable=1;deletable=1;editable=1;locked=0;connectable=1;" parent="1" vertex="1">
                    <mxGeometry x="645.3899999999999" y="170.90999999999997" width="28.99" height="50" as="geometry"/>
                </mxCell>
                <mxCell id="32" value="" style="shape=singleArrow;direction=south;whiteSpace=wrap;html=1;rotation=75;arrowWidth=0.33648114340639096;arrowSize=0.5592686309726469;fillColor=#647687;strokeColor=none;fontColor=#ffffff;movable=1;resizable=1;rotatable=1;deletable=1;editable=1;locked=0;connectable=1;" parent="1" vertex="1">
                    <mxGeometry x="674.3799999999999" y="223" width="28.99" height="50" as="geometry"/>
                </mxCell>
                <mxCell id="34" value="" style="shape=singleArrow;direction=south;whiteSpace=wrap;html=1;rotation=89;arrowWidth=0.33648114340639096;arrowSize=0.5592686309726469;fillColor=#647687;strokeColor=none;fontColor=#ffffff;movable=1;resizable=1;rotatable=1;deletable=1;editable=1;locked=0;connectable=1;" parent="1" vertex="1">
                    <mxGeometry x="684.3799999999999" y="312" width="28.99" height="50" as="geometry"/>
                </mxCell>
                <mxCell id="35" value="" style="shape=singleArrow;direction=south;whiteSpace=wrap;html=1;rotation=105;arrowWidth=0.33648114340639096;arrowSize=0.5592686309726469;fillColor=#647687;strokeColor=none;fontColor=#ffffff;movable=1;resizable=1;rotatable=1;deletable=1;editable=1;locked=0;connectable=1;" parent="1" vertex="1">
                    <mxGeometry x="674.3799999999999" y="387" width="28.99" height="50" as="geometry"/>
                </mxCell>
                <mxCell id="36" value="" style="shape=singleArrow;direction=south;whiteSpace=wrap;html=1;rotation=115;arrowWidth=0.33648114340639096;arrowSize=0.5592686309726469;fillColor=#647687;strokeColor=none;fontColor=#ffffff;movable=1;resizable=1;rotatable=1;deletable=1;editable=1;locked=0;connectable=1;" parent="1" vertex="1">
                    <mxGeometry x="633.3699999999999" y="443" width="28.99" height="50" as="geometry"/>
                </mxCell>
                <mxCell id="37" value="" style="shape=singleArrow;direction=south;whiteSpace=wrap;html=1;rotation=135;arrowWidth=0.33648114340639096;arrowSize=0.5592686309726469;fillColor=#647687;strokeColor=none;fontColor=#ffffff;movable=1;resizable=1;rotatable=1;deletable=1;editable=1;locked=0;connectable=1;" parent="1" vertex="1">
                    <mxGeometry x="593.3699999999999" y="483" width="28.99" height="50" as="geometry"/>
                </mxCell>
                <mxCell id="38" value="" style="shape=singleArrow;direction=south;whiteSpace=wrap;html=1;rotation=-210;arrowWidth=0.33648114340639096;arrowSize=0.5592686309726469;fillColor=#647687;strokeColor=none;fontColor=#ffffff;movable=1;resizable=1;rotatable=1;deletable=1;editable=1;locked=0;connectable=1;" parent="1" vertex="1">
                    <mxGeometry x="522.3599999999999" y="523" width="28.99" height="50" as="geometry"/>
                </mxCell>
                <mxCell id="39" value="" style="shape=singleArrow;direction=south;whiteSpace=wrap;html=1;rotation=-195;arrowWidth=0.33648114340639096;arrowSize=0.5592686309726469;fillColor=#647687;strokeColor=none;fontColor=#ffffff;movable=1;resizable=1;rotatable=1;deletable=1;editable=1;locked=0;connectable=1;" parent="1" vertex="1">
                    <mxGeometry x="453.3699999999999" y="543.47" width="28.99" height="50" as="geometry"/>
                </mxCell>
                <mxCell id="40" value="" style="shape=singleArrow;direction=south;whiteSpace=wrap;html=1;rotation=-180;arrowWidth=0.33648114340639096;arrowSize=0.5592686309726469;fillColor=#647687;strokeColor=none;fontColor=#ffffff;movable=1;resizable=1;rotatable=1;deletable=1;editable=1;locked=0;connectable=1;" parent="1" vertex="1">
                    <mxGeometry x="373.3699999999999" y="563" width="28.99" height="50" as="geometry"/>
                </mxCell>
                <mxCell id="45" value="" style="shape=singleArrow;direction=south;whiteSpace=wrap;html=1;rotation=-165;arrowWidth=0.33648114340639096;arrowSize=0.5592686309726469;fillColor=#647687;strokeColor=none;fontColor=#ffffff;movable=1;resizable=1;rotatable=1;deletable=1;editable=1;locked=0;connectable=1;" parent="1" vertex="1">
                    <mxGeometry x="276.623429020377" y="553.1002722840122" width="28.99" height="50" as="geometry"/>
                </mxCell>
                <mxCell id="46" value="" style="shape=singleArrow;direction=south;whiteSpace=wrap;html=1;rotation=-150;arrowWidth=0.33648114340639096;arrowSize=0.5592686309726469;fillColor=#647687;strokeColor=none;fontColor=#ffffff;movable=1;resizable=1;rotatable=1;deletable=1;editable=1;locked=0;connectable=1;" parent="1" vertex="1">
                    <mxGeometry x="172.69342902037698" y="513.0002722840122" width="28.99" height="50" as="geometry"/>
                </mxCell>
                <mxCell id="48" value="" style="shape=singleArrow;direction=south;whiteSpace=wrap;html=1;rotation=-120;arrowWidth=0.33648114340639096;arrowSize=0.5592686309726469;fillColor=#647687;strokeColor=none;fontColor=#ffffff;movable=1;resizable=1;rotatable=1;deletable=1;editable=1;locked=0;connectable=1;" parent="1" vertex="1">
                    <mxGeometry x="113.37342902037699" y="473.0002722840122" width="28.99" height="50" as="geometry"/>
                </mxCell>
                <mxCell id="49" value="" style="shape=singleArrow;direction=south;whiteSpace=wrap;html=1;rotation=-105;arrowWidth=0.33648114340639096;arrowSize=0.5592686309726469;fillColor=#647687;strokeColor=none;fontColor=#ffffff;movable=1;resizable=1;rotatable=1;deletable=1;editable=1;locked=0;connectable=1;" parent="1" vertex="1">
                    <mxGeometry x="55.62342902037699" y="383.10027228401225" width="28.99" height="50" as="geometry"/>
                </mxCell>
                <mxCell id="50" value="" style="shape=singleArrow;direction=south;whiteSpace=wrap;html=1;rotation=-91;arrowWidth=0.33648114340639096;arrowSize=0.5592686309726469;fillColor=#647687;strokeColor=none;fontColor=#ffffff;movable=1;resizable=1;rotatable=1;deletable=1;editable=1;locked=0;connectable=1;" parent="1" vertex="1">
                    <mxGeometry x="45.62342902037699" y="308.10027228401225" width="28.99" height="50" as="geometry"/>
                </mxCell>
                <mxCell id="51" value="" style="shape=singleArrow;direction=south;whiteSpace=wrap;html=1;rotation=-75;arrowWidth=0.33648114340639096;arrowSize=0.5592686309726469;fillColor=#647687;strokeColor=none;fontColor=#ffffff;movable=1;resizable=1;rotatable=1;deletable=1;editable=1;locked=0;connectable=1;" parent="1" vertex="1">
                    <mxGeometry x="68.63999999999999" y="248.57" width="28.99" height="55" as="geometry"/>
                </mxCell>
                <mxCell id="52" value="" style="shape=singleArrow;direction=south;whiteSpace=wrap;html=1;rotation=-65;arrowWidth=0.33648114340639096;arrowSize=0.5592686309726469;fillColor=#647687;strokeColor=none;fontColor=#ffffff;movable=1;resizable=1;rotatable=1;deletable=1;editable=1;locked=0;connectable=1;" parent="1" vertex="1">
                    <mxGeometry x="93.06" y="175.91999999999996" width="28.99" height="60.1" as="geometry"/>
                </mxCell>
                <mxCell id="53" value="" style="shape=singleArrow;direction=south;whiteSpace=wrap;html=1;rotation=-45;arrowWidth=0.33648114340639096;arrowSize=0.5592686309726469;fillColor=#647687;strokeColor=none;fontColor=#ffffff;movable=1;resizable=1;rotatable=1;deletable=1;editable=1;locked=0;connectable=1;" parent="1" vertex="1">
                    <mxGeometry x="143.70342902037697" y="133.10027228401225" width="28.99" height="50" as="geometry"/>
                </mxCell>
                <mxCell id="54" value="" style="shape=singleArrow;direction=south;whiteSpace=wrap;html=1;rotation=-390;arrowWidth=0.33648114340639096;arrowSize=0.5592686309726469;fillColor=#647687;strokeColor=none;fontColor=#ffffff;movable=1;resizable=1;rotatable=1;deletable=1;editable=1;locked=0;connectable=1;" parent="1" vertex="1">
                    <mxGeometry x="207.623429020377" y="83.10027228401225" width="28.99" height="50" as="geometry"/>
                </mxCell>
                <mxCell id="55" value="" style="shape=singleArrow;direction=south;whiteSpace=wrap;html=1;rotation=-375;arrowWidth=0.33648114340639096;arrowSize=0.5592686309726469;fillColor=#647687;strokeColor=none;fontColor=#ffffff;movable=1;resizable=1;rotatable=1;deletable=1;editable=1;locked=0;connectable=1;" parent="1" vertex="1">
                    <mxGeometry x="305.613429020377" y="63.000272284012254" width="28.99" height="50" as="geometry"/>
                </mxCell>
                <mxCell id="57" value="" style="shape=singleArrow;direction=south;whiteSpace=wrap;html=1;rotation=-90;arrowWidth=0.33648114340639096;arrowSize=0.5592686309726469;fillColor=#ffcc99;strokeColor=none;movable=1;resizable=1;rotatable=1;deletable=1;editable=1;locked=0;connectable=1;" parent="1" vertex="1">
                    <mxGeometry x="159.37" y="683.0000000000001" width="28.99" height="50" as="geometry"/>
                </mxCell>
                <mxCell id="58" value="" style="shape=singleArrow;direction=south;whiteSpace=wrap;html=1;rotation=-90;arrowWidth=0.33648114340639096;arrowSize=0.5592686309726469;fillColor=#647687;strokeColor=none;fontColor=#ffffff;movable=1;resizable=1;rotatable=1;deletable=1;editable=1;locked=0;connectable=1;" parent="1" vertex="1">
                    <mxGeometry x="159.3699999999999" y="643" width="28.99" height="50" as="geometry"/>
                </mxCell>
                <mxCell id="59" value="" style="shape=singleArrow;direction=south;whiteSpace=wrap;html=1;rotation=-90;arrowWidth=0.33648114340639096;arrowSize=0.5592686309726469;fillColor=#00CC00;strokeColor=none;movable=1;resizable=1;rotatable=1;deletable=1;editable=1;locked=0;connectable=1;" parent="1" vertex="1">
                    <mxGeometry x="159.37" y="725" width="28.99" height="50" as="geometry"/>
                </mxCell>
                <mxCell id="60" value="Needs &amp; challenges around maritime industry" style="text;align=left;verticalAlign=middle;resizable=1;points=[];autosize=1;strokeColor=none;fillColor=none;fontSize=22;movable=1;rotatable=1;deletable=1;editable=1;locked=0;connectable=1;fontFamily=TeX Gyre Termes;" parent="1" vertex="1">
                    <mxGeometry x="217.37" y="648" width="430" height="40" as="geometry"/>
                </mxCell>
                <mxCell id="61" value="Outcomes of each society&#39;s activities " style="text;align=left;verticalAlign=middle;resizable=1;points=[];autosize=1;strokeColor=none;fillColor=none;fontSize=22;movable=1;rotatable=1;deletable=1;editable=1;locked=0;connectable=1;fontFamily=TeX Gyre Termes;" parent="1" vertex="1">
                    <mxGeometry x="217.37" y="688" width="350" height="40" as="geometry"/>
                </mxCell>
                <mxCell id="62" value="Knowledges and techniques of each society&#39;s outcome" style="text;align=left;verticalAlign=middle;resizable=1;points=[];autosize=1;strokeColor=none;fillColor=none;fontSize=22;movable=1;rotatable=1;deletable=1;editable=1;locked=0;connectable=1;fontFamily=TeX Gyre Termes;" parent="1" vertex="1">
                    <mxGeometry x="217.37" y="730" width="500" height="40" as="geometry"/>
                </mxCell>
                <mxCell id="63" value="" style="ellipse;fillColor=none;movable=1;resizable=1;rotatable=1;deletable=1;editable=1;locked=0;connectable=1;rotation=-15;strokeColor=#FF8000;strokeWidth=7;perimeterSpacing=13;" parent="1" vertex="1">
                    <mxGeometry x="201.07000000000002" y="164.67000000000002" width="397.59" height="318.33" as="geometry"/>
                </mxCell>
            </root>
        </mxGraphModel>
    </diagram>
</mxfile>